<?xml version="1.0" encoding="UTF-8"?>
<svg xmlns="http://www.w3.org/2000/svg" width="46" height="46" viewBox="0 0 48 48" aria-hidden="true">
  <path fill="#EA4335" d="M24 9.5c3.9 0 6.3 1.6 7.8 2.9l5.7-5.7C34.1 3 29.8 1 24 1 14 1 5.6 6.8 2.5 15.6l6.6 5.1C11.7 14 17.2 9.5 24 9.5z"/>
  <path fill="#34A853" d="M46.5 24c0-1.6-.1-3.1-.4-4.6H24v8.7h12.7c-.6 3.3-2.4 6-5.2 7.8l6.6 5.1C43.6 38.8 46.5 31.9 46.5 24z"/>
  <path fill="#FBBC05" d="M8.6 28.7A14.4 14.4 0 0 1 8 24c0-1.3.2-2.6.6-3.8L2 14.1C.7 17.2 0 20.5 0 24c0 3.5.7 6.8 2 9.9l6.6-5.2z"/>
  <path fill="#4285F4" d="M24 46.5c5.8 0 10.9-2 14.8-5.4l-7.1-5.5c-2 1.4-4.5 2.3-7.7 2.3-3.2 0-5.9-1.1-7.9-2.9l-6.6 5.1C9.6 42.9 16.4 46.5 24 46.5z"/>
</svg>